<?xml version="1.0" standalone="no"?>
<!DOCTYPE svg PUBLIC "-//W3C//DTD SVG 20010904//EN"
 "http://www.w3.org/TR/2001/REC-SVG-20010904/DTD/svg10.dtd">
<svg version="1.0" xmlns="http://www.w3.org/2000/svg"
 width="72.000000pt" height="79.000000pt" viewBox="0 0 72.000000 79.000000"
 preserveAspectRatio="xMidYMid meet">

<g transform="translate(0.000000,79.000000) scale(0.100000,-0.100000)"
fill="#000000" stroke="none">
<path d="M253 726 c-59 -19 -104 -49 -152 -101 -65 -71 -85 -124 -86 -230 0
-82 3 -96 33 -157 38 -77 92 -130 171 -167 80 -37 201 -37 282 1 78 36 133 89
170 164 88 179 11 396 -170 477 -58 26 -188 33 -248 13z m252 -45 c200 -99
244 -362 85 -521 -64 -64 -138 -94 -230 -94 -131 0 -234 65 -292 182 -29 59
-33 76 -32 147 0 66 5 89 26 131 36 69 72 109 124 140 108 63 211 68 319 15z"/>
<path d="M289 687 c-145 -41 -231 -152 -230 -298 0 -116 61 -216 166 -272 58
-32 212 -32 270 0 58 31 114 89 141 147 37 78 34 183 -7 264 -34 69 -72 105
-144 138 -64 29 -138 37 -196 21z m43 -214 l35 -98 12 41 c6 23 14 62 17 88 6
38 4 46 -10 46 -9 0 -16 5 -16 10 0 6 23 10 50 10 55 0 59 -4 31 -28 -10 -10
-22 -34 -25 -54 -7 -37 -7 -38 23 -32 43 9 78 -3 97 -32 13 -20 14 -28 5 -37
-10 -9 -15 -8 -26 8 -36 50 -52 57 -79 30 -20 -21 -11 -42 41 -91 70 -66 54
-134 -33 -134 -47 0 -91 29 -96 65 -5 31 30 32 38 0 11 -45 74 -62 94 -25 13
25 4 43 -49 94 l-41 40 -6 -33 c-12 -59 -36 -34 -81 84 -23 61 -44 103 -47 95
-7 -22 -36 -157 -36 -169 0 -6 7 -11 15 -11 8 0 15 -4 15 -10 0 -5 -22 -10
-50 -10 -49 0 -68 13 -32 22 13 4 23 28 40 99 19 82 20 95 7 105 -24 18 -17
24 29 24 l43 0 35 -97z"/>
</g>
</svg>
